<?xml version="1.0" encoding="UTF-8" standalone="no"?>
<svg
   xmlns:dc="http://purl.org/dc/elements/1.1/"
   xmlns:cc="http://creativecommons.org/ns#"
   xmlns:rdf="http://www.w3.org/1999/02/22-rdf-syntax-ns#"
   xmlns:svg="http://www.w3.org/2000/svg"
   xmlns="http://www.w3.org/2000/svg"
   xmlns:inkscape="http://www.inkscape.org/namespaces/inkscape"
   xmlns:sodipodi="http://sodipodi.sourceforge.net/DTD/sodipodi-0.dtd"
   width="400"
   height="400"
   id="svg4230"
   version="1.1">

  <defs id="defs4232">

  </defs>
  <g id="red_hat_logo" inkscape:label="#g6217" transform="translate(838.5714,-492)">
    <path
       id="path5996"
       d="m 287.882,224.983 c -5.33,-1.223 -10.977,-1.989 -16.698,-1.989 -9.773,0 -18.67,1.688 -25.23,4.427 -0.731,0.355 -1.242,1.113 -1.242,1.971 0,0.311 0.082,0.63 0.202,0.895 0.775,2.254 -0.503,4.689 -6.854,6.086 -9.418,2.072 -15.357,11.781 -18.761,15.01 -3.996,3.797 -15.274,6.133 -13.577,3.869 1.323,-1.77 6.405,-7.281 9.489,-13.249 2.765,-5.319 5.22,-6.835 8.614,-11.917 0.994,-1.488 4.845,-6.725 5.968,-10.868 1.259,-4.052 0.831,-9.124 1.313,-11.214 0.694,-3.012 3.542,-9.544 3.75,-13.241 0.128,-2.089 -8.713,2.975 -12.912,2.975 -4.197,0 -8.285,-2.5 -12.026,-2.682 -4.645,-0.229 -7.619,3.577 -11.817,2.911 -2.399,-0.384 -4.416,-2.491 -8.604,-2.655 -5.967,-0.22 -13.249,3.321 -26.936,2.874 -13.459,-0.429 -25.897,-17.008 -27.594,-19.646 -1.988,-3.094 -4.417,-3.094 -7.062,-0.657 -2.655,2.418 -5.913,0.52 -6.843,-1.113 -1.771,-3.085 -6.489,-12.118 -13.798,-14.016 -10.11,-2.619 -15.237,5.602 -14.572,12.145 0.675,6.635 4.974,8.497 6.954,12.028 1.99,3.531 3.001,5.812 6.744,7.372 2.655,1.104 3.641,2.737 2.847,4.909 -0.693,1.898 -3.449,2.336 -5.256,2.419 -3.859,0.182 -6.561,-0.858 -8.522,-2.118 -2.29,-1.459 -4.161,-3.485 -6.16,-6.934 -2.308,-3.797 -5.949,-5.458 -10.192,-5.458 -2.025,0 -3.914,0.539 -5.602,1.406 -6.652,3.459 -14.564,5.51 -23.095,5.51 l -9.609,0 C 36.119,180.155 33.584,165.3 33.584,149.842 33.584,73.494 95.478,11.6 171.835,11.6 c 76.348,0 138.234,61.894 138.234,138.242 -0.004,27.702 -8.153,53.506 -22.187,75.141"
       clip-path="none"
       transform="matrix(0.2802946,0,0,0.2802946,-803.34987,498.92604)" />
    <path
       id="path5998"
       d="m -722.6581,561.98756 c -1.49397,-0.3428 -3.0768,-0.56003 -4.68036,-0.56003 -2.73932,0 -5.2331,0.47566 -7.07183,1.24059 -0.2049,0.0998 -0.34813,0.31196 -0.34813,0.55498 0,0.0872 0.023,0.17658 0.0566,0.25086 0.21723,0.62898 -0.14099,1.3143 -1.92114,1.70588 -2.63982,0.57768 -4.30448,3.30215 -5.25861,4.20441 -1.12005,1.06709 -4.28122,1.71905 -3.80556,1.08502 0.37083,-0.49387 1.79529,-2.04082 2.65972,-3.71138 0.77501,-1.49088 1.46314,-1.91805 2.41446,-3.34307 0.27861,-0.41652 1.35802,-1.88498 1.67279,-3.04596 0.35289,-1.13323 0.23293,-2.55489 0.36803,-3.1407 0.19453,-0.84425 0.9928,-2.67794 1.05111,-3.71391 0.0359,-0.58301 -2.44221,0.83612 -3.61917,0.83612 -1.17639,0 -2.32224,-0.70326 -3.37082,-0.75427 -1.30197,-0.0617 -2.13557,1.00261 -3.31224,0.81818 -0.67243,-0.10988 -1.23778,-0.70074 -2.41166,-0.74418 -1.67252,-0.0617 -3.71362,0.92833 -7.55001,0.80556 -3.77249,-0.12276 -7.25879,-4.77005 -7.73445,-5.50919 -0.55723,-0.86442 -1.23806,-0.86442 -1.97944,-0.18387 -0.74418,0.68 -1.65738,0.14547 -1.91806,-0.31225 -0.4964,-0.86471 -1.81883,-3.39661 -3.8675,-3.92608 -2.83378,-0.7341 -4.27085,1.56796 -4.08446,3.40165 0.1892,1.862 1.39419,2.38391 1.94917,3.37082 0.55779,0.99253 0.84117,1.62936 1.89031,2.0669 0.74418,0.30944 1.02055,0.76716 0.798,1.37821 -0.19425,0.52947 -0.96674,0.65224 -1.47323,0.67523 -1.08166,0.0538 -1.83901,-0.24022 -2.38867,-0.59059 -0.64188,-0.41175 -1.16631,-0.97963 -1.72662,-1.94356 -0.64692,-1.0668 -1.66747,-1.53237 -2.85676,-1.53237 -0.56759,0 -1.09707,0.15108 -1.57021,0.3941 -1.86452,0.97206 -4.08221,1.54498 -6.4734,1.54498 l -2.69335,0.002 c 5.16667,15.32595 19.65818,26.36199 36.72812,26.36199 13.63129,2.8e-4 25.62173,-7.04072 32.52735,-17.68631"
       clip-path="none"
       style="fill:#ffffff" />
    <g
       id="g6202">
      <path
         id="path6000"
         d="m -746.6544,558.43511 c 0.19957,0.19424 0.54265,0.84901 0.12277,1.67784 -0.23517,0.44006 -0.48856,0.74951 -0.94123,1.11025 -0.54489,0.43698 -1.61141,0.94095 -3.07175,0.0154 -0.7851,-0.49892 -0.8336,-0.66514 -1.91834,-0.52443 -0.77501,0.0995 -1.08446,-0.68055 -0.80584,-1.33252 0.27889,-0.6472 1.42473,-1.17415 2.84695,-0.33775 0.64187,0.37587 1.63944,1.16882 2.51396,0.46557 0.36074,-0.29151 0.57797,-0.48379 1.08194,-1.06428 0.023,-0.0255 0.0538,-0.0409 0.0897,-0.0409 0.0308,2.8e-4 0.0617,0.0129 0.0819,0.0308" />
      <path
         id="path6002"
         d="m -758.20198,520.62785 c -4.47574,0.32458 -4.94131,0.80809 -5.78023,1.70055 -1.18173,1.25824 -2.73932,-1.6344 -2.73932,-1.6344 -0.93338,-0.19705 -2.06633,-1.70363 -1.45529,-3.11015 0.60123,-1.3911 1.71372,-0.9743 2.06128,-0.53985 0.42465,0.52696 1.33,1.38914 2.50388,1.35831 1.17443,-0.0308 2.52966,-0.27861 4.41996,-0.27861 1.91554,0 3.20489,0.71587 3.27609,1.33 0.0617,0.52443 -0.15557,1.02083 -2.28637,1.17415 m 4.70082,-7.39698 c -0.008,0.003 -0.0126,0.003 -0.0202,0.003 -0.0689,0 -0.12529,-0.0535 -0.12529,-0.11745 0,-0.0462 0.028,-0.0872 0.0715,-0.10511 0.86723,-0.46024 2.16107,-0.8235 3.64214,-0.9743 0.44511,-0.0462 0.87985,-0.0692 1.29665,-0.0743 0.074,0 0.14827,0.003 0.22227,0.003 2.48341,0.0566 4.4735,1.04354 4.44267,2.20508 -0.0306,1.16098 -2.06633,2.05624 -4.54974,2.00243 -0.80333,-0.0205 -1.55788,-0.13539 -2.20732,-0.32206 -0.0765,-0.0207 -0.13314,-0.0872 -0.13314,-0.16369 0,-0.0793 0.0566,-0.14323 0.13314,-0.16342 1.55003,-0.35821 2.59609,-0.94403 2.52181,-1.49901 -0.0973,-0.73409 -2.12267,-1.13295 -4.52704,-0.88994 -0.26067,0.0252 -0.51939,0.0583 -0.76745,0.0967 z m 20.17757,17.38472 c -0.38092,1.28879 -0.92581,2.93356 -3.34812,4.17919 -0.35289,0.17883 -0.48827,-0.11772 -0.32486,-0.39634 0.91572,-1.55507 1.07689,-1.94664 1.34317,-2.56049 0.37307,-0.89778 0.56788,-2.17677 -0.17154,-4.84181 -1.45809,-5.24319 -4.49901,-12.25336 -6.70913,-14.52739 -2.13052,-2.1947 -5.99522,-2.81107 -9.48881,-1.91553 -1.28403,0.32963 -3.8008,1.63972 -8.46826,0.58806 -8.07725,-1.81855 -9.27411,2.22498 -9.73688,3.98747 -0.46304,1.76249 -1.57553,6.76771 -1.57553,6.76771 -0.37083,2.04111 -0.85686,5.58627 11.68352,7.97494 5.84162,1.11249 6.13817,2.6216 6.39912,3.70858 0.46305,1.94637 1.20471,3.06138 2.03886,3.61636 0.8336,0.55779 0,1.01803 -0.92609,1.11249 -2.48845,0.25815 -11.68352,-2.37858 -17.12376,-5.47079 -4.45248,-2.71885 -4.52703,-5.16891 -3.50872,-7.24617 -6.72147,-0.72877 -11.76817,0.62954 -12.68362,3.81088 -1.57049,5.46603 12.01063,14.79367 27.47448,19.47683 16.2257,4.91301 32.91724,1.48332 34.77139,-8.7166 0.84144,-4.63439 -3.06166,-8.06127 -9.64522,-9.54739 z"
         style="fill:#ef1209" />
      <path
         id="path6004"
         d="m -717.92869,560.29206 0,-0.33495 0.2248,0 c 0.11492,0 0.23797,0.023 0.23797,0.15836 0,0.16874 -0.12529,0.17659 -0.266,0.17659 l -0.19677,0 m 0,0.14071 0.1892,0 0.28618,0.47313 0.18668,0 -0.31225,-0.4807 c 0.16145,-0.0207 0.28422,-0.10511 0.28422,-0.29936 0,-0.2147 -0.12838,-0.30944 -0.38653,-0.30944 l -0.41427,0 0,1.0895 0.16649,0 0,-0.47313 2.8e-4,0 z" />
      <path
         id="path6006"
         d="m -717.73445,559.48369 c -0.4835,0 -0.87732,0.39381 -0.87732,0.87732 0,0.48575 0.39382,0.8776 0.87732,0.8776 0.48323,0 0.87733,-0.39157 0.87733,-0.8776 0,-0.48323 -0.3941,-0.87732 -0.87733,-0.87732 m 1.06625,0.87732 c 0,0.59058 -0.47566,1.06652 -1.06653,1.06652 -0.58833,0 -1.06652,-0.47566 -1.06652,-1.06652 0,-0.58834 0.47819,-1.06652 1.06652,-1.06652 0.59115,0 1.06653,0.47846 1.06653,1.06652 z" />
      <path
         id="path6004-7"
         d="m -684.80302,628.75113 0,-0.33495 0.2248,0 c 0.11492,0 0.23797,0.023 0.23797,0.15836 0,0.16874 -0.12529,0.17659 -0.266,0.17659 l -0.19677,0 m 0,0.14071 0.1892,0 0.28618,0.47313 0.18668,0 -0.31225,-0.4807 c 0.16145,-0.0207 0.28422,-0.10511 0.28422,-0.29936 0,-0.2147 -0.12838,-0.30944 -0.38653,-0.30944 l -0.41427,0 0,1.0895 0.16649,0 0,-0.47313 2.8e-4,0 z" />
      <path
         id="path6006-4"
         d="m -684.60878,627.94276 c -0.4835,0 -0.87732,0.39381 -0.87732,0.87732 0,0.48575 0.39382,0.8776 0.87732,0.8776 0.48323,0 0.87733,-0.39157 0.87733,-0.8776 0,-0.48323 -0.3941,-0.87732 -0.87733,-0.87732 m 1.06625,0.87732 c 0,0.59058 -0.47566,1.06652 -1.06653,1.06652 -0.58833,0 -1.06652,-0.47566 -1.06652,-1.06652 0,-0.58834 0.47819,-1.06652 1.06652,-1.06652 0.59115,0 1.06653,0.47846 1.06653,1.06652 z" />
    </g>
  </g>
  <path
     d="m 10.60436,119.43151 c 0,-3.64047 -0.0761,-6.31926 -0.22261,-8.74126 l 5.95734,0 0.2542,5.166 0.19389,0 c 1.33939,-3.83206 4.51108,-5.78472 7.44638,-5.78472 0.67358,0 1.06423,0.0258 1.61457,0.14937 l 0,6.47925 c -0.64485,-0.12323 -1.24461,-0.19389 -2.073,-0.19389 -3.27683,0 -5.55176,2.08651 -6.16473,5.20277 -0.11776,0.60837 -0.17837,1.33423 -0.17837,2.07616 l 0,14.10632 -6.88282,0 0.0551,-18.46"
     id="path5976" />
  <path
     d="m 46.1163,121.35027 c 0.0319,-2.52139 -1.06595,-6.62862 -5.67412,-6.62862 -4.23275,0 -5.9944,3.84239 -6.30375,6.62862 l 11.97787,0 m -11.96437,4.79402 c 0.18326,4.9273 3.99693,7.08216 8.40261,7.08216 3.16365,0 5.42594,-0.49318 7.50698,-1.2581 l 1.01999,4.73341 c -2.32979,0.98552 -5.55951,1.72487 -9.50962,1.72487 -8.82973,0 -14.00636,-5.45438 -14.00636,-13.79207 0,-7.50671 4.55504,-14.61243 13.30406,-14.61243 8.84582,0 11.72682,7.27605 11.72682,13.23109 0,1.27908 -0.11288,2.30682 -0.24645,2.93818 l -18.19803,-0.0471 z"
     id="path5978" />
  <path
     d="m 75.40297,125.99555 c 0,0.72048 -0.0528,1.39411 -0.20938,2.00719 -0.69377,2.97632 -3.12271,4.89219 -5.93053,4.89219 -4.32557,0 -6.80154,-3.64997 -6.80154,-8.64699 0,-5.0438 2.45446,-8.94791 6.87956,-8.94791 3.08859,0 5.29755,2.18005 5.90442,4.82644 0.11788,0.5582 0.15747,1.2448 0.15747,1.79239 l 0,4.07669 m 6.86435,-25.89044 -6.86465,-1.86045 0,15.2759 -0.11588,0 c -1.21374,-2.00979 -3.89105,-3.54519 -7.61261,-3.54519 -6.53024,0 -12.219,5.41367 -12.17711,14.52412 0,8.36127 5.13694,13.90014 11.625,13.90014 3.92004,0 7.19705,-1.87107 8.81979,-4.91805 l 0.12276,0 0.30859,4.30498 6.11896,0 c -0.12592,-1.84752 -0.22485,-4.84224 -0.22485,-7.62501 l 0,-30.05644 0,0 z"
     id="path5994" />
  <path
     d="m 100.21519,110.45472 c -2.03997,0 -3.86881,0.58969 -5.40554,1.53844 -1.59303,0.93324 -2.89279,2.37461 -3.66403,3.86854 l -0.10943,0 0,-13.27303 -2.65237,-0.72355 0,36.02639 2.65237,0 0,-16.40251 c 0,-1.08777 0.0865,-1.84522 0.36421,-2.64203 1.14523,-3.33656 4.28848,-6.07309 8.08751,-6.07309 5.49144,0 7.39238,4.40338 7.39238,9.23129 l 0,15.88605 2.65208,0 0,-16.17731 c 0,-9.98816 -6.77539,-11.25919 -9.31718,-11.25919"
     id="path5984" />
  <path
     d="m 130.68668,123.55712 c -5.839,-0.16746 -13.55368,0.71581 -13.55368,7.15541 0,3.85562 2.54553,5.58824 5.33921,5.58824 4.47117,0 7.01208,-2.76783 7.93641,-5.37855 0.19475,-0.5739 0.27806,-1.14781 0.27806,-1.60653 l 0,-5.75857 m 2.65494,7.96543 c 0,2.1204 0.0845,4.31692 0.38864,6.36925 l -2.44297,0 -0.39065,-3.8424 -0.12523,0 c -1.30033,2.06783 -4.28877,4.45564 -8.55054,4.45564 -5.39664,0 -7.91085,-3.79787 -7.91085,-7.37543 0,-6.188 5.4653,-9.91779 16.37666,-9.8052 l 0,-0.71551 c 0,-2.65265 -0.51589,-7.94475 -6.8587,-7.90511 -2.34617,0 -4.79144,0.62906 -6.73404,1.99947 l -0.84304,-1.9288 c 2.44957,-1.66168 5.44031,-2.31946 7.86748,-2.31946 7.74023,0 9.22324,5.81056 9.22324,10.60458 l 0,10.46297 0,0 z"
     id="path5980" />
  <path
     d="m 143.90426,105.15773 0,5.91023 7.64344,0 0,2.15458 -7.64344,0 0,17.43255 c 0,3.40981 1.05935,5.54859 3.93719,5.54859 1.38335,0 2.36398,-0.18353 3.0479,-0.42195 l 0.32257,2.05462 c -0.86775,0.36164 -2.08392,0.64486 -3.70051,0.64486 -1.96098,0 -3.58043,-0.61613 -4.62914,-1.90296 -1.21588,-1.41006 -1.63008,-3.66144 -1.63008,-6.39538 l 0,-16.96061 -4.52718,0 0,-2.15458 4.52718,0 0,-4.92989 2.65207,-0.98006"
     id="path5982" />
</svg>
