<?xml version="1.0" encoding="UTF-8" standalone="yes"?>
<svg
   xmlns:dc="http://purl.org/dc/elements/1.1/"
   xmlns:cc="http://creativecommons.org/ns#"
   xmlns:rdf="http://www.w3.org/1999/02/22-rdf-syntax-ns#"
   xmlns:svg="http://www.w3.org/2000/svg"
   xmlns="http://www.w3.org/2000/svg"
   xmlns:sodipodi="http://sodipodi.sourceforge.net/DTD/sodipodi-0.dtd"
   xmlns:inkscape="http://www.inkscape.org/namespaces/inkscape"
   width="274.69913"
   height="78.18779"
   version="1.1"
   id="svg6430">

  <defs id="defs37">

  </defs>


  <g id="red_hat_logo" inkscape:label="#g62173" style="display:inline" transform="translate(92.202695,73.026157)">
   <g id="g2830" transform="matrix(0.3816,0,0,0.3816,27.918822,-20.98371)"><path
     clip-rule="evenodd"
     d="m -101.70774,42.41494 c -4.46539,-1.030768 -9.20084,-1.677376 -13.99334,-1.677376 -8.1929,0 -15.6479,1.42634 -21.14786,3.708483 -0.59716,0.304286 -1.03077,0.935679 -1.03077,1.658358 0,0.258643 0.0685,0.528696 0.16736,0.749303 0.65041,1.886572 -0.4222,3.936697 -5.7434,5.104394 -7.88861,1.730625 -12.87509,9.874073 -15.72016,12.578413 -3.34715,3.179786 -12.79522,5.127215 -11.37649,3.233036 1.11065,-1.479589 5.37065,-6.100929 7.95708,-11.091216 2.31257,-4.465394 4.3741,-5.72818 7.21537,-9.991984 0.82918,-1.247571 4.05461,-5.636894 4.99409,-9.101948 1.0612,-3.39659 0.70366,-7.64518 1.11065,-9.398627 0.57053,-2.517964 2.96298,-8.002715 3.13414,-11.098823 0.1065,-1.738232 -7.29906,2.502751 -10.81356,2.502751 -3.5145,0 -6.94151,-2.103376 -10.07946,-2.259322 -3.88345,-0.186375 -6.3824,3.001018 -9.9045,2.445697 -2.00068,-0.327108 -3.69708,-2.088162 -7.20397,-2.221287 -4.99409,-0.193982 -11.10263,2.776608 -22.5704,2.407662 -11.28139,-0.37275 -21.69557,-14.2481825 -23.12191,-16.4618615 -1.66597,-2.59403612 -3.70468,-2.59403612 -5.91836,-0.5629286 -2.22129,2.0349111 -4.95605,0.4450179 -5.73579,-0.9128573
       -1.47959,-2.5940362 -5.44291,-10.1707518 -11.56285,-11.7454307 -8.47056,-2.1984639 -12.75719,4.6783937 -12.20947,10.16314468 0.57053,5.55701882 4.16491,7.11648342 5.82707,10.07946742 1.66597,2.955375 2.52177,4.864768 5.64831,6.180804 2.22128,0.920465 3.05046,2.297358 2.38864,4.123072 -0.58575,1.582286 -2.89072,1.939822 -4.41595,2.019697 -3.22923,0.155947 -5.48475,-0.718875 -7.1355,-1.783875 -1.917,-1.217143 -3.47646,-2.921143 -5.15384,-5.800448 -1.93602,-3.187393 -4.99409,-4.575697 -8.54282,-4.575697 -1.6964,0 -3.28629,0.452625 -4.68981,1.182911 -5.57984,2.890715 -12.20946,4.613733 -19.35257,4.613733 h -8.05216 c -3.91388,-11.6275208 -6.04388,-24.0804158 -6.04388,-37.035381 0,-63.968476 51.8579,-115.826384 115.83398,-115.826384 63.97228,0 115.826391,51.857908 115.826391,115.826384 -0.0038,23.2170027 -6.827412,44.832704 -18.584261,62.968136 l 0,0 z"
     id="path5"
     style="fill:#020001;fill-rule:evenodd" /><path
     clip-rule="evenodd"
     d="m -173.44691,31.791563 c 0.60096,0.578143 1.62792,2.525572 0.37275,5.013108 -0.69986,1.308429 -1.46058,2.2365 -2.82225,3.320518 -1.62413,1.308429 -4.80772,2.807037 -9.18183,0.04564 -2.343,-1.494804 -2.48373,-1.989268 -5.72437,-1.574679 -2.32018,0.304286 -3.23684,-2.027304 -2.40766,-3.98234 0.83678,-1.932214 4.25239,-3.499286 8.51239,-1.019357 1.9132,1.129661 4.8952,3.506893 7.50445,1.395911 1.09162,-0.871018 1.73443,-1.441554 3.23684,-3.179786 0.0761,-0.07607 0.16735,-0.117911 0.27385,-0.117911 0.0913,0 0.17877,0.03804 0.23583,0.09889 l 0,0 z"
     id="path7"
     style="fill:#020001;fill-rule:evenodd" /><path
     clip-rule="evenodd"
     d="m -133.58548,-51.373541 c -1.14487,3.856822 -2.7728,8.767234 -10.011,12.490931 -1.05739,0.536303 -1.45677,-0.342322 -0.97752,-1.179108 2.74618,-4.651768 3.22163,-5.819465 4.02418,-7.65659 1.11064,-2.681519 1.69259,-6.496501 -0.52109,-14.468789 -4.35129,-15.67452 -13.44563,-36.624595 -20.04863,-43.429193 -6.37859,-6.55736 -17.92243,-8.40209 -28.36704,-5.72818 -3.84921,0.98513 -11.36507,4.899 -25.31657,1.75725 -24.14888,-5.4353 -27.71663,6.65245 -29.10494,11.916599 -1.3845,5.267948 -4.71643,20.238807 -4.71643,20.238807 -1.10684,6.089519 -2.5598,16.686271 34.92821,23.833183 17.466,3.324322 18.35223,7.846769 19.12436,11.083609 1.38069,5.823269 3.59818,9.151395 6.09712,10.817359 2.49515,1.665965 0,3.039054 -2.7728,3.324322 -7.43599,0.772125 -34.9244,-7.112679 -51.18467,-16.351556 -13.3087,-8.132037 -13.53311,-15.453914 -10.47884,-21.665147 -20.10188,-2.168036 -35.18304,1.886572 -37.91781,11.403109 -4.69741,16.321128 35.89811,44.216526 82.12673,58.2060632 48.50315,14.6931998 98.3946,4.4425722 103.93641,-26.0620752 2.52177,-13.841199 -9.14759,-24.088022 -28.81967,-28.530594 l 0,0 z"
     id="path9"
     style="fill:#ce2127;fill-opacity:1;fill-rule:evenodd" /><path
     clip-rule="evenodd"
     d="m -84.889807,35.613962 h 0.920764 l 1.370034,2.268556 h 0.889626 l -1.49902,-2.313039 c 0.778418,-0.08007 1.365577,-0.493742 1.365577,-1.423404 0,-1.03197 -0.618294,-1.494579 -1.845981,-1.494579 h -1.988318 v 5.231022 h 0.787318 v -2.268556 l 0,0 z m 0,-0.67167 v -1.623568 h 1.089799 c 0.551563,0 1.129824,0.120091 1.129824,0.765074 0,0.809564 -0.596047,0.858494 -1.272171,0.858494 h -0.947452 l 0,0 z"
     id="path11"
     style="fill:#020001;fill-rule:evenodd" /><path
     clip-rule="evenodd"
     d="m -78.08628,35.268463 c 0,3.091976 -2.507662,5.599631 -5.614249,5.599631 -3.096837,0 -5.609364,-2.512528 -5.609364,-5.599631 0,-3.111448 2.512527,-5.609367 5.609364,-5.609367 3.111458,-0.0038 5.614249,2.497919 5.614249,5.609367 l 0,0 z m -5.614249,-4.616042 c -2.536867,0 -4.61117,2.054818 -4.61117,4.611174 0,2.556358 2.069431,4.601437 4.61117,4.601437 2.536889,0 4.625791,-2.045079 4.625791,-4.601437 0,-2.556356 -2.088902,-4.611174 -4.625791,-4.611174 l 0,0 z"
     id="path13"
     style="fill:#020001;fill-rule:evenodd" /><path
     clip-rule="evenodd"
     d="m -207.96813,-81.227779 c -13.37717,0.969911 -14.76928,2.415269 -17.27583,5.085376 -3.53352,3.765537 -8.18529,-4.883786 -8.18529,-4.883786 -2.79943,-0.589554 -6.1808,-5.092983 -4.35889,-9.29593 1.80289,-4.157305 5.12722,-2.913537 6.16939,-1.627929 1.26659,1.578482 3.96713,4.157304 7.48163,4.066018 3.50689,-0.08368 7.56531,-0.825375 13.21741,-0.825375 5.72058,0 9.5774,2.141411 9.7942,3.967126 0.18638,1.570875 -0.46403,3.050465 -6.84262,3.5145 l 0,0 z"
     id="path15"
     style="fill:#020001;fill-rule:evenodd" /><path
     clip-rule="evenodd"
     d="m -193.91013,-103.33415 c -0.019,0 -0.038,0 -0.0571,0 -0.20919,0 -0.37655,-0.15594 -0.37655,-0.34992 0,-0.14074 0.0875,-0.25865 0.213,-0.3157 2.59023,-1.36929 6.46227,-2.46472 10.88582,-2.91734 1.33125,-0.13313 2.62827,-0.20539 3.88345,-0.22061 0.22061,0 0.43741,0 0.66182,0.008 7.42077,0.16736 13.36956,3.12273 13.28208,6.59159 -0.0913,3.468864 -6.1732,6.150382 -13.60538,5.986828 -2.40006,-0.06086 -4.65938,-0.403178 -6.5954,-0.969911 -0.23582,-0.05705 -0.40317,-0.247232 -0.40317,-0.475446 0,-0.235821 0.16735,-0.433607 0.40317,-0.490661 4.63656,-1.068804 7.75929,-2.82225 7.53488,-4.48442 -0.28907,-2.19466 -6.34816,-3.38137 -13.5293,-2.6625 -0.79115,0.0837 -1.55567,0.19018 -2.29736,0.30048 l 0,0 z"
     id="path17"
     style="fill:#020001;fill-rule:evenodd" /><path
     clip-rule="evenodd"
     d="m -24.764769,-13.718547 c 0,-10.596386 -0.226394,-18.402207 -0.655763,-25.440625 l 17.4557843,0 0.7533467,15.030278 0.5620824,0 c 3.9228675,-11.142871 13.2284553,-16.828641 21.8314396,-16.828641 1.963385,0 3.11097,0.07364 4.723055,0.430211 l 0,18.847923 c -1.889223,-0.356571 -3.649633,-0.561987 -6.077519,-0.561987 -9.606144,0 -16.2691634,6.069473 -18.068608,15.1387999 -0.3434952,1.771232 -0.5269524,3.8835327 -0.5269524,6.0423423 l 0,41.0522728 -20.1686136,0 0.171748,-53.710574 0,0 z"
     id="path19"
     style="fill:#020001;fill-rule:evenodd" /><path
     clip-rule="evenodd"
     d="M 44.149266,6.1340152 C 44.686305,20.478463 55.827933,26.767982 68.70521,26.767982 c 9.234749,0 15.846562,-1.439488 21.925229,-3.674383 l 2.980959,13.801245 c -6.802502,2.863458 -16.239612,5.024632 -27.782074,5.024632 -25.801254,0 -40.92398,-15.892578 -40.92398,-40.1776473 0,-21.8794557 13.305353,-42.5677427 38.86922,-42.5677427 25.851845,0 34.261574,21.18881 34.261574,38.5441579 0,3.7209429 -0.323001,6.7124413 -0.719945,8.5554523 l -53.166927,-0.139681 0,0 z M 79.107437,-7.8340704 C 79.193057,-15.178956 75.98638,-27.15271 62.525363,-27.15271 c -12.37137,0 -17.512164,11.201629 -18.411121,19.3186396 l 34.993195,0 0,0 z"
     id="path21"
     style="fill:#020001;fill-rule:evenodd" /><path
     clip-rule="evenodd"
     d="m 334.56859,21.33812 c 0,6.21835 0.242,12.663247 1.14368,18.68239 l -7.16657,0 -1.13976,-11.268804 -0.37083,0 c -3.81357,6.066016 -12.56878,13.069471 -25.06341,13.069471 -15.81247,0 -23.17419,-11.147719 -23.17419,-21.627515 0,-18.1472687 16.01154,-29.0957831 47.98779,-28.7676792 l 0,-2.0897128 c 0,-7.772935 -1.5145,-23.307091 -20.10616,-23.178195 -6.8738,0 -14.04425,1.839726 -19.72754,5.859 l -2.47862,-5.659793 c 7.18216,-4.87078 15.9491,-6.796438 23.05709,-6.796438 22.68627,0 27.0346,17.034061 27.0346,31.087845 l 0,30.689431 0.004,0 z m -7.77938,-23.3617773 c -17.1162,-0.496062 -39.7244,2.10533321 -39.7244,20.9947423 0,11.300054 7.4554,16.377852 15.64853,16.377852 13.10355,0 20.54724,-8.116667 23.25225,-15.768517 0.5777,-1.687391 0.82362,-3.370876 0.82362,-4.714539 l 0,-16.8895383 0,0 z"
     id="path23"
     style="fill:#020001;fill-rule:evenodd" /><path
     clip-rule="evenodd"
     d="m 365.88176,-55.764183 0,17.286126 22.40131,0 0,6.290468 -22.40131,0 0,50.98589 c 0,9.975164 3.11096,16.21889 11.55,16.21889 4.0517,0 6.91284,-0.525829 8.92305,-1.223039 l 0.94854,6.002238 c -2.54499,1.07113 -6.10877,1.885191 -10.85133,1.885191 -5.74181,0 -10.48831,-1.795608 -13.56415,-5.562097 -3.55985,-4.124834 -4.78551,-10.695742 -4.78551,-18.707812 l 0,-49.595367 -13.25577,0 0,-6.290467 13.25577,0 0,-14.423281 7.7794,-2.86674 0,0 z"
     id="path25"
     style="fill:#020001;fill-rule:evenodd" /><path
     clip-rule="evenodd"
     d="m 236.8175,-39.819273 c -6.00616,0 -11.39248,1.706314 -15.91573,4.45495 -4.69588,2.706169 -8.52476,6.883167 -10.79226,11.210721 l -0.32169,0 0,-38.469301 -7.81469,-2.092359 0,104.417226 7.81469,0 0,-47.5374783 c 0,-3.1578407 0.24323,-5.3467117 1.06705,-7.6591177 3.36988,-9.666545 12.62824,-17.607472 23.82458,-17.607472 16.16681,0 21.77283,12.766481 21.77283,26.7605808 l 0,46.0473482 7.81076,0 0,-46.8850641 c 0.004,-28.9648939 -19.95255,-32.6400339 -27.44554,-32.6400339 l 0,0 z"
     id="path27"
     style="fill:#020001;fill-rule:evenodd" /><path
     clip-rule="evenodd"
     d="m 184.30648,-69.482203 -20.15299,-5.410055 0,44.370955 -0.32789,0 c -3.56375,-5.831566 -11.42901,-10.294185 -22.34667,-10.294185 -19.16936,0 -35.86398,15.715841 -35.73909,42.1821855 0,24.2814385 15.07475,40.3685205 34.11139,40.3685205 11.50317,0 21.12884,-5.437124 25.88701,-14.288886 l 0.36693,0 0.90166,12.506158 17.95932,0 c -0.36691,-5.371382 -0.65967,-14.064594 -0.65967,-22.15454 l 0,-87.280153 0,0 z M 164.15349,5.7017019 c 0,2.0998283 -0.14835,4.0488396 -0.60893,5.8315671 -2.03365,8.646806 -9.16505,14.215411 -17.40114,14.215411 -12.69758,0 -19.95783,-10.603553 -19.95783,-25.1128622 0,-14.6523918 7.19777,-25.9906908 20.18031,-25.9906908 9.0675,0 15.55095,6.330421 17.33481,14.01819 0.34348,1.6164408 0.45278,3.6195932 0.45278,5.212833 l 0,11.8255519 0,0 z"
     id="path29"
     style="fill:#020001;fill-rule:evenodd" /><path
     clip-rule="evenodd"
     d="m 398.35014,36.07878 1.01751,0 1.53258,2.510286 0.98051,0 -1.64377,-2.551235 c 0.85276,-0.110568 1.50369,-0.544647 1.50369,-1.584798 0,-1.142531 -0.68388,-1.638039 -2.05985,-1.638039 l -2.19994,0 0,5.774072 0.86927,0 0,-2.510286 0,0 z m 0,-0.737115 0,-1.785459 1.20296,0 c 0.60971,0 1.27298,0.126948 1.27298,0.839496 0,0.888631 -0.66327,0.941868 -1.41307,0.941868 l -1.06287,0 0,0.0038 z"
     id="path31"
     style="fill:#020001;fill-rule:evenodd" /><path
     clip-rule="evenodd"
     d="m 405.07758,35.710223 c 0,3.120452 -2.53772,5.655312 -5.68099,5.655312 -3.14339,0 -5.68935,-2.53486 -5.68935,-5.655312 0,-3.128644 2.54596,-5.663504 5.68935,-5.663504 3.14327,0 5.68099,2.53486 5.68099,5.663504 l 0,0 z m -5.67682,-4.656109 c -2.59131,0 -4.68833,2.080297 -4.68833,4.656109 0,2.56762 2.09702,4.65611 4.68833,4.65611 2.57876,0 4.66753,-2.08849 4.66753,-4.65611 -0.004,-2.575812 -2.09291,-4.656109 -4.66753,-4.656109 l 0,0 z"
     id="path33"
     style="fill:#020001;fill-rule:evenodd" />
   </g>
  </g>
</svg>
